<svg width="1000" height="364" viewBox="0 0 1000 364" fill="none" xmlns="http://www.w3.org/2000/svg">
<path d="M400.15 191.62C397.963 190.12 394.413 189.37 389.5 189.37C387.07 189.328 384.64 189.465 382.23 189.78C380.75 189.976 379.323 190.462 378.03 191.21C376.779 192.05 375.671 193.087 374.75 194.28L330 254.4L285.45 194.28C284.5 193.33 283.61 192.48 282.79 191.73C281.66 190.833 280.322 190.235 278.9 189.99C276.336 189.509 273.728 189.301 271.12 189.37C266.067 189.37 262.447 190.12 260.26 191.62C258.233 192.911 256.771 194.923 256.17 197.25C255.607 199.628 255.332 202.066 255.35 204.51V316.41C255.333 318.989 255.608 321.562 256.17 324.08C256.719 326.459 258.148 328.542 260.17 329.91C262.29 331.41 265.807 332.16 270.72 332.16C275.767 332.16 279.35 331.41 281.47 329.91C283.481 328.575 284.91 326.528 285.47 324.18C286.029 321.767 286.304 319.297 286.29 316.82V243.58L316.6 286.58C317.29 287.4 318.1 288.35 319.06 289.44C320.186 290.657 321.547 291.633 323.06 292.31C325.299 293.229 327.712 293.649 330.13 293.54C332.479 293.639 334.821 293.219 336.99 292.31C338.528 291.617 339.894 290.592 340.99 289.31C341.99 288.15 342.7 287.23 343.25 286.55L373.76 243.39V316.39C373.754 318.936 374.029 321.475 374.58 323.96C375.113 326.397 376.582 328.526 378.67 329.89C380.857 331.39 384.407 332.14 389.32 332.14C394.38 332.14 397.99 331.39 400.18 329.89C402.23 328.578 403.696 326.525 404.27 324.16C404.829 321.747 405.104 319.277 405.09 316.8V204.92C405.1 202.407 404.825 199.901 404.27 197.45C403.708 195.044 402.23 192.953 400.15 191.62Z" fill="white"/>
<path d="M542 209C535.482 202.226 527.655 196.847 518.995 193.19C510.334 189.534 501.021 187.676 491.62 187.73C482.235 187.667 472.947 189.618 464.38 193.45C455.975 197.239 448.418 202.68 442.16 209.45C428.946 223.674 421.659 242.406 421.79 261.82C421.699 271.497 423.598 281.088 427.37 290C431.009 298.559 436.219 306.36 442.73 313C449.216 319.621 456.939 324.904 465.46 328.55C474.223 332.318 483.671 334.231 493.21 334.17C502.494 334.227 511.68 332.275 520.14 328.45C528.504 324.652 536.05 319.265 542.36 312.59C548.77 305.82 553.858 297.911 557.36 289.27C564.677 270.961 564.605 250.527 557.16 232.27C553.572 223.652 548.433 215.765 542 209ZM528.59 277.63C526.714 282.584 523.857 287.108 520.19 290.93C516.59 294.661 512.319 297.681 507.6 299.83C502.777 302.019 497.536 303.135 492.24 303.1C486.98 303.166 481.772 302.052 477 299.84C472.345 297.639 468.142 294.587 464.61 290.84C460.943 286.941 458.028 282.398 456.01 277.44C453.885 272.28 452.808 266.75 452.84 261.17C452.791 255.528 453.865 249.933 456 244.71C458.029 239.728 460.942 235.154 464.6 231.21C468.13 227.388 472.373 224.293 477.09 222.1C481.809 219.918 486.951 218.801 492.15 218.83C497.412 218.788 502.618 219.904 507.4 222.1C512.12 224.293 516.367 227.388 519.9 231.21C527.396 239.316 531.544 249.96 531.51 261C531.562 266.683 530.555 272.326 528.54 277.64L528.59 277.63Z" fill="white"/>
<path d="M623.84 229.26C631.655 222.718 641.498 219.091 651.69 219C655.557 218.907 659.417 219.355 663.16 220.33C665.651 221.012 668.056 221.975 670.33 223.2C672.097 224.22 673.463 225.073 674.43 225.76C676.61 227.093 678.417 228.183 679.85 229.03C681.251 229.84 682.842 230.265 684.46 230.26C686.638 230.201 688.74 229.447 690.46 228.11C692.902 226.178 695.014 223.861 696.71 221.25C697.822 219.697 698.749 218.019 699.47 216.25C700.077 214.723 700.389 213.094 700.39 211.45C700.388 210.024 700.084 208.614 699.5 207.313C698.916 206.012 698.064 204.849 697 203.9C694.818 201.995 692.476 200.282 690 198.78C688.05 197.427 685.997 196.23 683.86 195.2C679.774 193.181 675.526 191.509 671.16 190.2C665.243 188.462 659.096 187.636 652.93 187.75C646.353 187.81 639.814 188.738 633.48 190.51C626.511 192.406 619.828 195.228 613.61 198.9C607.112 202.716 601.24 207.508 596.2 213.11C590.901 219.034 586.705 225.858 583.81 233.26C580.619 241.651 579.058 250.574 579.21 259.55C579.05 268.859 580.609 278.117 583.81 286.86C586.691 294.507 590.925 301.573 596.31 307.72C601.351 313.476 607.259 318.412 613.82 322.35C619.973 326.055 626.581 328.942 633.48 330.94C639.65 332.77 646.045 333.732 652.48 333.8C658.774 333.926 665.054 333.134 671.12 331.45C675.466 330.232 679.657 328.517 683.61 326.34C686.75 324.5 688.87 323.34 689.96 322.76C692.418 321.276 694.759 319.604 696.96 317.76C698.01 316.912 698.851 315.835 699.42 314.611C699.989 313.387 700.269 312.049 700.24 310.7C700.363 308.992 700.083 307.279 699.42 305.7C698.665 303.856 697.702 302.105 696.55 300.48C694.985 297.76 692.954 295.336 690.55 293.32C688.906 291.945 686.852 291.153 684.71 291.07C683.03 291.082 681.379 291.504 679.9 292.3C678.33 293.12 676.8 294 675.29 294.96C673.78 295.92 671.98 296.96 669.87 298.13C667.467 299.419 664.924 300.426 662.29 301.13C658.844 302.012 655.296 302.426 651.74 302.36C646.885 302.323 642.073 301.458 637.51 299.8C632.614 298.072 628.071 295.474 624.1 292.13C619.904 288.596 616.515 284.204 614.16 279.25C611.64 274.057 610.38 267.85 610.38 260.63C610.213 254.311 611.449 248.034 614 242.25C616.278 237.245 619.639 232.808 623.84 229.26Z" fill="white"/>
<path d="M832.39 192.2C830.277 190.733 826.693 190 821.64 190C816.587 190 812.97 190.75 810.79 192.25C808.737 193.562 807.269 195.614 806.69 197.98C806.123 200.46 805.848 202.997 805.87 205.54V247.48H750.17V205.7C750.194 203.092 749.953 200.489 749.45 197.93C748.956 195.583 747.559 193.525 745.56 192.2C743.44 190.733 739.857 190 734.81 190C729.623 190 725.957 190.75 723.81 192.25C721.802 193.588 720.373 195.634 719.81 197.98C719.243 200.46 718.968 202.997 718.99 205.54V317.24C718.985 319.777 719.226 322.309 719.71 324.8C719.938 326.01 720.41 327.161 721.098 328.182C721.786 329.203 722.675 330.074 723.71 330.74C725.89 332.24 729.507 332.99 734.56 332.99C739.613 332.99 743.233 332.24 745.42 330.74C746.442 330.084 747.322 329.23 748.009 328.229C748.696 327.228 749.175 326.099 749.42 324.91C749.907 322.45 750.148 319.948 750.14 317.44V274.44H805.84V317.2C805.833 319.743 806.108 322.278 806.66 324.76C807.184 327.179 808.616 329.305 810.66 330.7C812.78 332.2 816.363 332.95 821.41 332.95C826.47 332.95 830.08 332.2 832.27 330.7C833.292 330.044 834.172 329.19 834.859 328.189C835.546 327.188 836.025 326.059 836.27 324.87C836.757 322.41 836.998 319.908 836.99 317.4V205.7C837.014 203.092 836.773 200.489 836.27 197.93C835.779 195.585 834.385 193.527 832.39 192.2Z" fill="white"/>
<path d="M994.88 310.47L940.81 198.37C939.911 196.538 938.7 194.876 937.23 193.46C935.832 192.121 934.202 191.047 932.42 190.29C930.602 189.534 928.649 189.153 926.68 189.17C923.742 189.193 920.869 190.042 918.39 191.62C915.81 193.19 913.729 195.462 912.39 198.17L858.49 310.06C856.924 312.794 855.946 315.826 855.62 318.96C855.53 320.139 855.674 321.325 856.043 322.449C856.412 323.573 856.999 324.613 857.77 325.51C859.937 327.768 862.553 329.546 865.45 330.73C870.91 333.317 875.11 334.1 878.05 333.08C880.98 332.08 883.81 328.88 886.55 323.57L898.33 298.81H954.77L966.62 323.57C969.213 329.023 972.013 332.26 975.02 333.28C978.027 334.3 982.257 333.517 987.71 330.93C990.597 329.638 993.205 327.797 995.39 325.51C996.151 324.648 996.733 323.644 997.102 322.556C997.471 321.467 997.62 320.317 997.54 319.17C997.216 316.127 996.313 313.174 994.88 310.47ZM910.88 272.47L926.46 239.74L942.12 272.47H910.88Z" fill="white"/>
<path d="M257.36 160.54C260.618 161.86 264.262 161.86 267.52 160.54C268.52 159.934 269.24 158.956 269.52 157.82C269.811 156.608 269.955 155.366 269.95 154.12V133.61H288.5C292.131 133.62 295.735 132.993 299.15 131.76C302.571 130.513 305.724 128.626 308.44 126.2C311.265 123.683 313.513 120.586 315.03 117.12C316.706 113.156 317.524 108.883 317.43 104.58C317.517 100.217 316.69 95.8837 315 91.86C313.504 88.3775 311.277 85.2571 308.47 82.71C305.768 80.2653 302.611 78.3761 299.18 77.15C295.787 75.9268 292.207 75.3008 288.6 75.3H262.5C260.773 75.1647 259.042 75.5109 257.5 76.3C256.512 76.9197 255.797 77.8922 255.5 79.02C255.207 80.211 255.063 81.4336 255.07 82.66V154C255.068 155.266 255.192 156.529 255.44 157.77C255.549 158.34 255.776 158.881 256.107 159.358C256.438 159.835 256.864 160.238 257.36 160.54ZM269.92 90.25H288.5C291.109 90.1807 293.691 90.7833 296 92C298.068 93.1296 299.774 94.8215 300.92 96.88C302.127 99.2805 302.74 101.935 302.709 104.622C302.678 107.308 302.002 109.948 300.74 112.32C299.516 114.339 297.744 115.969 295.63 117.02C293.462 118.06 291.084 118.587 288.68 118.56H269.92V90.25Z" fill="white"/>
<path d="M330.3 160.42C331.846 161.199 333.574 161.544 335.3 161.42C337.069 161.551 338.84 161.206 340.43 160.42C340.925 160.122 341.356 159.729 341.7 159.264C342.043 158.799 342.291 158.271 342.43 157.71C342.725 156.496 342.87 155.25 342.86 154V133.28H361.57L377.57 157.46C379.05 159.68 380.553 160.997 382.08 161.41C383.607 161.823 385.563 161.207 387.95 159.56C389.27 158.638 390.438 157.514 391.41 156.23C391.727 155.762 391.944 155.233 392.045 154.677C392.147 154.121 392.131 153.55 392 153C391.571 151.478 390.855 150.053 389.89 148.8L377.29 129.7L377.54 129.56C380.402 127.763 382.896 125.439 384.89 122.71C386.824 120.05 388.307 117.091 389.28 113.95C390.258 110.857 390.757 107.633 390.76 104.39C390.853 100.015 390.033 95.6693 388.35 91.63C386.874 88.1522 384.66 85.0369 381.86 82.5C379.183 80.0942 376.051 78.248 372.65 77.07C369.173 75.8677 365.519 75.2625 361.84 75.28H335.42C333.692 75.1323 331.958 75.4791 330.42 76.28C329.455 76.9193 328.746 77.8791 328.42 78.99C328.082 80.1734 327.917 81.3994 327.93 82.63V153.81C327.922 155.076 328.067 156.338 328.36 157.57C328.475 158.151 328.707 158.703 329.04 159.192C329.373 159.682 329.802 160.1 330.3 160.42ZM342.84 90.23H361.62C364.251 90.1526 366.861 90.7226 369.22 91.89C371.292 92.9713 372.995 94.646 374.11 96.7C375.319 99.043 375.914 101.654 375.84 104.29C375.909 106.451 375.569 108.605 374.84 110.64C374.213 112.293 373.265 113.805 372.05 115.09C370.964 116.235 369.635 117.12 368.16 117.68C366.756 118.206 365.269 118.476 363.77 118.48H342.84V90.23Z" fill="white"/>
<path d="M444 162.45C449.552 162.491 455.048 161.331 460.11 159.05C465.11 156.774 469.618 153.544 473.38 149.54C477.246 145.46 480.3 140.681 482.38 135.46C484.54 130.054 485.63 124.281 485.59 118.46C485.643 112.552 484.51 106.693 482.26 101.23C480.106 96.0381 477.007 91.291 473.12 87.23C469.285 83.2184 464.693 80.0065 459.61 77.78C454.332 75.4896 448.633 74.3314 442.88 74.38C437.303 74.3441 431.784 75.5248 426.71 77.84C421.707 80.1385 417.2 83.3889 413.44 87.41C405.442 95.9755 401.033 107.281 401.12 119C401.076 124.788 402.209 130.524 404.45 135.86C408.844 146.236 417.036 154.542 427.35 159.08C432.602 161.359 438.275 162.507 444 162.45ZM418.39 129.72C416.945 126.15 416.211 122.332 416.23 118.48C416.21 114.634 416.923 110.819 418.33 107.24C419.674 103.787 421.663 100.62 424.19 97.91C426.647 95.2759 429.605 93.158 432.89 91.68C436.205 90.2125 439.79 89.4544 443.415 89.4544C447.04 89.4544 450.625 90.2125 453.94 91.68C457.201 93.1694 460.137 95.2864 462.58 97.91C465.103 100.613 467.109 103.754 468.5 107.18C469.958 110.768 470.692 114.608 470.66 118.48C470.689 122.345 469.98 126.181 468.57 129.78C467.223 133.196 465.23 136.319 462.7 138.98C460.23 141.587 457.275 143.686 454 145.16C450.659 146.651 447.038 147.408 443.38 147.38C439.744 147.411 436.145 146.654 432.83 145.16C429.576 143.695 426.643 141.602 424.2 139C421.688 136.297 419.701 133.15 418.34 129.72H418.39Z" fill="white"/>
<path d="M496.19 153C497.133 153.912 498.135 154.76 499.19 155.54C500.755 156.698 502.395 157.75 504.1 158.69C506.164 159.831 508.356 160.724 510.63 161.35C513.196 162.076 515.853 162.432 518.52 162.41C522.673 162.466 526.794 161.687 530.64 160.12C534.136 158.663 537.274 156.466 539.84 153.68C542.403 150.852 544.386 147.55 545.68 143.96C547.057 140.066 547.734 135.96 547.68 131.83V83C547.692 81.7068 547.544 80.417 547.24 79.16C546.954 78.009 546.238 77.0109 545.24 76.37C543.732 75.5749 542.029 75.2279 540.33 75.37C537.93 75.37 536.19 75.7433 535.11 76.49C534.044 77.219 533.291 78.3219 533 79.58C532.661 80.9575 532.493 82.3715 532.5 83.79V131C532.518 133.232 532.249 135.457 531.7 137.62C531.217 139.518 530.372 141.304 529.21 142.88C528.106 144.349 526.652 145.518 524.98 146.28C523.09 147.107 521.042 147.51 518.98 147.46C517.354 147.476 515.736 147.226 514.19 146.72C512.858 146.276 511.586 145.671 510.4 144.92C509.32 144.22 508.4 143.62 507.79 143.13C506.457 141.89 505.317 140.837 504.37 139.97C503.483 139.127 502.304 138.661 501.08 138.67C500.167 138.673 499.269 138.907 498.47 139.35C497.4 140.003 496.435 140.816 495.61 141.76C494.762 142.588 494.029 143.527 493.43 144.55C492.921 145.393 492.641 146.355 492.62 147.34C492.642 148.379 493.016 149.38 493.68 150.18C494.47 151.1 495.27 152.05 496.19 153Z" fill="white"/>
<path d="M620.72 161.1C621.848 160.803 622.82 160.088 623.44 159.1C624.236 157.539 624.582 155.787 624.44 154.04C624.557 152.298 624.212 150.556 623.44 148.99C622.857 147.998 621.903 147.279 620.79 146.99C619.557 146.688 618.29 146.543 617.02 146.56H576.02V124.36H604C605.24 124.37 606.479 124.267 607.7 124.05C608.213 123.959 608.699 123.757 609.126 123.458C609.553 123.159 609.909 122.771 610.17 122.32C610.84 120.919 611.136 119.369 611.03 117.82C611.149 116.248 610.852 114.672 610.17 113.25C609.636 112.382 608.798 111.744 607.82 111.46C606.652 111.153 605.447 111.009 604.24 111.03H576.1V90.23H617C618.263 90.2403 619.523 90.1163 620.76 89.86C621.324 89.7253 621.855 89.4788 622.322 89.1353C622.79 88.7918 623.183 88.3582 623.48 87.86C624.267 86.3171 624.613 84.5869 624.48 82.86C624.611 81.0946 624.266 79.3263 623.48 77.74C622.892 76.7521 621.941 76.0341 620.83 75.74C619.596 75.4423 618.33 75.2979 617.06 75.31H568.94C565.98 75.31 563.943 75.8467 562.83 76.92C561.72 77.98 561.16 79.92 561.16 82.71V153.89C561.15 155.177 561.278 156.46 561.54 157.72C561.665 158.294 561.907 158.837 562.252 159.313C562.596 159.79 563.034 160.19 563.54 160.49C565.097 161.302 566.849 161.665 568.6 161.54H617C618.254 161.551 619.503 161.403 620.72 161.1Z" fill="white"/>
<path d="M657.6 96.78C660.237 94.3896 663.314 92.5352 666.66 91.32C669.973 90.1097 673.473 89.487 677 89.48C679.557 89.434 682.108 89.7231 684.59 90.34C686.322 90.7851 687.999 91.4223 689.59 92.24C690.87 92.94 691.75 93.45 692.25 93.78C693.4 94.51 694.36 95.13 695.15 95.62C695.906 96.1015 696.784 96.355 697.68 96.35C698.759 96.3297 699.805 95.9809 700.68 95.35C701.859 94.5187 702.876 93.4781 703.68 92.28C704.205 91.5407 704.648 90.7459 705 89.91C705.342 89.0746 705.469 88.1671 705.37 87.27C705.332 86.5474 705.143 85.8409 704.814 85.1965C704.485 84.5521 704.023 83.9842 703.46 83.53C702.279 82.5153 701.022 81.5926 699.7 80.77C699.04 80.36 697.77 79.64 695.87 78.62C693.508 77.4082 691.028 76.4399 688.47 75.73C684.936 74.7661 681.283 74.3115 677.62 74.38C673.422 74.4789 669.254 75.1209 665.22 76.29C661.061 77.4786 657.084 79.2315 653.4 81.5C649.629 83.8144 646.253 86.7179 643.4 90.1C640.393 93.6673 638.025 97.7269 636.4 102.1C634.611 106.992 633.733 112.171 633.81 117.38C633.756 122.701 634.647 127.99 636.44 133C639.575 141.812 645.557 149.328 653.44 154.36C657.112 156.716 661.103 158.535 665.29 159.76C669.255 160.927 673.366 161.527 677.5 161.54C681.208 161.613 684.909 161.179 688.5 160.25C691.044 159.586 693.506 158.64 695.84 157.43C697.69 156.43 698.95 155.69 699.61 155.28C700.946 154.524 702.205 153.64 703.37 152.64C703.933 152.186 704.394 151.618 704.724 150.974C705.053 150.329 705.242 149.623 705.28 148.9C705.365 148.023 705.238 147.138 704.91 146.32C704.539 145.419 704.084 144.555 703.55 143.74C702.85 142.501 701.908 141.417 700.78 140.55C699.94 139.926 698.927 139.577 697.88 139.55C696.964 139.549 696.067 139.805 695.29 140.29C694.47 140.78 693.6 141.29 692.7 141.88L689.43 143.66C687.789 144.529 686.05 145.201 684.25 145.66C681.888 146.236 679.461 146.505 677.03 146.46C673.492 146.462 669.982 145.839 666.66 144.62C663.314 143.405 660.237 141.55 657.6 139.16C654.859 136.651 652.69 133.582 651.24 130.16C648.12 122.316 648.12 113.574 651.24 105.73C652.701 102.329 654.869 99.2784 657.6 96.78Z" fill="white"/>
<path d="M745.15 88.38V153.91C745.137 155.173 745.257 156.433 745.51 157.67C745.645 158.233 745.891 158.762 746.235 159.228C746.579 159.693 747.012 160.085 747.51 160.38C749.019 161.185 750.724 161.549 752.43 161.43C754.195 161.56 755.963 161.215 757.55 160.43C758.536 159.841 759.254 158.89 759.55 157.78C759.847 156.552 759.992 155.293 759.98 154.03V88.38H782.64C783.758 88.3929 784.874 88.289 785.97 88.07C786.46 87.9657 786.922 87.7583 787.325 87.4618C787.729 87.1652 788.064 86.7862 788.31 86.35C788.98 84.9493 789.276 83.3991 789.17 81.85C789.276 80.3009 788.98 78.7507 788.31 77.35C788.065 76.913 787.734 76.5301 787.337 76.2242C786.94 75.9183 786.485 75.6958 786 75.57C784.934 75.307 783.838 75.1826 782.74 75.2H722.23C721.132 75.1927 720.038 75.3169 718.97 75.57C718.469 75.6847 717.997 75.9021 717.583 76.2084C717.17 76.5148 716.825 76.9035 716.57 77.35C715.893 78.7486 715.593 80.2998 715.7 81.85C715.581 83.3883 715.904 84.9286 716.63 86.29C717.176 87.1385 718.023 87.7493 719 88C720.047 88.2555 721.122 88.3798 722.2 88.37L745.15 88.38Z" fill="white"/>
<path d="M170.65 304.77L170.99 304.66C179.63 301.89 188.38 289.75 186.64 281.61C185.26 275.17 179.32 271.11 168.78 270.16H168.72L167.29 274.29C165.006 283.792 162.134 293.144 158.69 302.29C158.34 303.21 157.97 304.12 157.6 305.03C161.882 306.22 166.419 306.129 170.65 304.77ZM172.65 277.2L172.9 276.25C179.04 277.09 182.2 280.92 181.9 283.9C181.37 290.17 176.62 295.9 173.11 298.13C170.694 299.648 167.952 300.57 165.11 300.82C168.028 293.084 170.534 285.2 172.62 277.2H172.65Z" fill="white"/>
<path d="M198.81 143.54C197.035 142.554 194.981 142.192 192.976 142.51C190.97 142.829 189.13 143.811 187.748 145.298C186.366 146.786 185.523 148.694 185.353 150.717C185.183 152.741 185.696 154.763 186.81 156.46L170.33 172.93L145.33 172.99L187.41 130.85C187.944 130.314 188.27 129.605 188.33 128.85L188.41 101.51C190.324 100.578 191.851 99.0033 192.723 97.0608C193.595 95.1184 193.758 92.9314 193.183 90.8813C192.607 88.8312 191.331 87.0481 189.575 85.8431C187.82 84.638 185.697 84.0875 183.577 84.2875C181.457 84.4875 179.475 85.4253 177.976 86.9374C176.476 88.4495 175.556 90.4398 175.374 92.5614C175.192 94.6829 175.761 96.8009 176.981 98.5459C178.201 100.291 179.995 101.552 182.05 102.11L182 127.28L166.5 142.83L156.23 132.51V93.63L176.62 73C181.36 75.22 187.47 73.24 194.06 66.68C201.17 59.56 201.84 54.09 198.51 49.5L198.34 49.28L198.1 49L197.69 48.55C197.522 48.3669 197.291 48.2532 197.043 48.231C196.795 48.2088 196.548 48.2797 196.35 48.43C193.111 50.9992 190.1 53.8431 187.35 56.93C186.274 58.2201 185.447 59.6984 184.91 61.29L184.41 62.66C183.91 64.17 183.06 65.5406 181.93 66.66C180.04 68.4682 177.602 69.5943 175 69.86C174.738 69.9196 174.465 69.9023 174.213 69.81C173.961 69.7177 173.741 69.5545 173.58 69.34C173.31 68.95 173.31 68.65 173.58 68.45C175.974 67.7119 178.169 66.4399 180 64.73C182.67 62.06 179.87 59.79 185 54.62L185.37 54.24C188.094 51.5232 191.289 49.3241 194.8 47.75C194.919 47.7013 195.025 47.6261 195.11 47.53C195.286 47.3471 195.386 47.104 195.39 46.85C195.386 46.596 195.286 46.3529 195.11 46.17C190.52 42.86 185 43.56 178 50.65C171.82 56.83 169.69 62.65 171.28 67.18L171.8 68.18C171.877 68.3291 171.991 68.4563 172.13 68.55L150.74 90.11C150.151 90.7067 149.82 91.5114 149.82 92.35V134.12C149.883 134.874 150.209 135.582 150.74 136.12L162 147.37L143.67 165.73C143.53 165.64 143.17 165.9 142.43 166.64L142.15 166.91C136.097 172.77 127.203 175.183 115.47 174.15C114.303 165.977 115.42 160.073 118.82 156.44L119.35 155.88L129.6 145.6L129.74 145.46C130.251 144.876 130.532 144.126 130.53 143.35L130.59 109.09C138.28 107.94 143 100.35 143 87C143.084 83.4524 142.615 79.9134 141.61 76.51L150.75 67.35C151.046 67.0569 151.28 66.708 151.44 66.3234C151.6 65.9389 151.681 65.5264 151.68 65.11V34.71C153.718 34.0994 155.476 32.7927 156.649 31.0179C157.822 29.2431 158.334 27.1129 158.097 24.9989C157.859 22.8849 156.887 20.9214 155.35 19.4509C153.813 17.9804 151.808 17.0963 149.686 16.9528C147.564 16.8093 145.458 17.4156 143.737 18.6658C142.016 19.916 140.788 21.7308 140.269 23.7936C139.749 25.8563 139.97 28.0361 140.893 29.9526C141.816 31.8691 143.383 33.4006 145.32 34.28V63.75L138.32 70.75C136.468 68.9172 134.064 67.7437 131.48 67.41L130.78 67.34L129.87 67.28C129.547 67.2577 129.229 67.3623 128.982 67.5715C128.736 67.7808 128.581 68.0781 128.55 68.4C127.93 73.646 127.769 78.9361 128.07 84.21C128.267 86.3844 128.874 88.5018 129.86 90.45L130.44 91.68C131.447 93.607 131.982 95.7458 132 97.92C131.918 101.313 130.687 104.577 128.51 107.18C128.167 107.608 127.673 107.891 127.13 107.97C126.891 107.969 126.655 107.908 126.446 107.793C126.236 107.678 126.059 107.512 125.93 107.31C127.454 104.436 128.299 101.251 128.4 98C128.4 93.18 123.81 93.64 123.81 84.31V83.71C123.821 78.7518 124.739 73.8374 126.52 69.21C126.61 68.9836 126.633 68.7363 126.587 68.4971C126.541 68.258 126.427 68.037 126.26 67.86C126.027 67.6319 125.716 67.4998 125.39 67.49C118.23 68.64 113.9 74.21 113.9 87.03C113.9 98.2 117.2 105.34 122.79 108.03L124.18 108.48V142.07L109.32 156.95V131.49C109.269 130.716 108.939 129.988 108.39 129.44L84.93 106L85 63.59L106.45 42.11C106.746 41.8151 106.981 41.4644 107.14 41.0782C107.3 40.6919 107.381 40.2779 107.38 39.86V35.5C107.488 35.4371 107.592 35.3669 107.69 35.29L107.85 35.18C112.59 31.31 112.65 24.32 107.26 15.35C102.11 6.74 97 4.76 91.69 6.88L91.25 7.05L90.57 7.41C90.3537 7.53084 90.19 7.72763 90.1106 7.96226C90.0312 8.19689 90.0416 8.45265 90.14 8.68C91.8162 12.4569 93.8241 16.0778 96.14 19.5C97.1329 20.8602 98.3707 22.0234 99.79 22.93L100.79 23.57C102.236 24.4545 103.45 25.6716 104.33 27.12C105.633 29.4222 106.129 32.0936 105.74 34.71V35.12C105.66 35.41 105.38 35.57 104.95 35.61H104.85C104.679 35.6248 104.508 35.5828 104.364 35.4906C104.219 35.3984 104.109 35.2611 104.05 35.1C103.851 32.81 103.169 30.588 102.05 28.58C100.05 25.35 97.22 27.51 93.45 21.25L93.18 20.8C91.1975 17.4857 89.8416 13.8349 89.18 10.03C89.1515 9.87516 89.0868 9.72925 88.9912 9.60414C88.8956 9.47902 88.7719 9.37824 88.63 9.31C88.4891 9.23802 88.3332 9.20049 88.175 9.20049C88.0168 9.20049 87.8609 9.23802 87.72 9.31C83.4 12.96 82.72 18.44 87.91 27.03C92 34 96.64 37.45 101.1 37.63V38.56L79.6 60C79.0068 60.5908 78.6723 61.3928 78.67 62.23L78.56 107.49C78.6091 108.267 78.9397 108.999 79.49 109.55L102.87 133V150.27C102.683 166.05 100.217 175.74 95.47 179.34C89.19 178.167 83.83 174.31 79.39 167.77L79.33 167.68C78.2211 165.748 77.5998 163.576 77.52 161.35V140.83C77.4673 140.054 77.1372 139.323 76.59 138.77L55.84 118V73.44C55.8278 73.0223 55.7332 72.6112 55.5616 72.2302C55.39 71.8492 55.1448 71.5059 54.84 71.22L45.5 61.84L45.57 61.72L45.72 61.45C48.49 56.2 46.03 49.75 37.92 43.45C30.01 37.26 24.48 37.26 20.32 41.12L20.26 41.18L19.88 41.59L19.47 42.05C19.3093 42.2417 19.2263 42.4868 19.2375 42.7367C19.2486 42.9866 19.3529 43.2233 19.53 43.4C22.4705 46.3019 25.6556 48.945 29.05 51.3C30.4685 52.2076 32.041 52.8482 33.69 53.19L34.81 53.44C36.472 53.7586 38.0368 54.4606 39.38 55.49C41.5269 57.2753 42.9897 59.7486 43.52 62.49C43.52 62.55 43.71 63.28 43.25 63.58C43.1228 63.6913 42.9726 63.7732 42.8101 63.8199C42.6476 63.8666 42.4769 63.8768 42.31 63.85C41.2691 61.4573 39.6877 59.3385 37.69 57.66C34.69 55.28 32.79 58.38 27.03 53.88L26.61 53.56C23.5707 51.1649 20.9922 48.2373 19 44.92V44.84C18.9464 44.7614 18.8786 44.6936 18.8 44.64C18.5974 44.4904 18.3459 44.4228 18.0956 44.4506C17.8453 44.4784 17.6148 44.5996 17.45 44.79C14.71 49.79 16.07 55.07 23.97 61.26C30.66 66.5 36.51 68 40.82 66.09L49.46 74.74V119.46C49.5009 120.237 49.8287 120.971 50.38 121.52L71.12 142.29V169.62L28.81 127.29L28.87 99C30.8501 98.2016 32.4864 96.7325 33.4927 94.8496C34.499 92.9667 34.8113 90.7899 34.3749 88.7C33.9385 86.6101 32.7811 84.7402 31.1054 83.4174C29.4296 82.0946 27.3421 81.4031 25.208 81.4639C23.0739 81.5247 21.0291 82.3339 19.4313 83.7499C17.8336 85.166 16.7845 87.0987 16.4678 89.21C16.151 91.3214 16.5867 93.4768 17.6985 95.2994C18.8104 97.122 20.5277 98.4956 22.55 99.18L22.49 128.78C22.5303 129.56 22.858 130.297 23.41 130.85L65.41 172.92H40.41L37.08 169.6C41.63 163.34 39.58 154.68 30.17 145.27L29.89 144.99C21 136.16 14 135.36 8.22998 139.59C8.07998 139.7 7.83998 139.89 7.52998 140.17L6.99998 140.63C6.7593 140.844 6.61118 141.143 6.58692 141.464C6.56266 141.785 6.66417 142.103 6.86998 142.35C10.1464 146.512 13.7838 150.377 17.74 153.9C19.4135 155.307 21.3417 156.38 23.42 157.06L24.71 157.52C26.7712 158.178 28.6485 159.312 30.19 160.83C32.6325 163.436 34.0987 166.806 34.34 170.37C34.365 170.638 34.3334 170.908 34.2473 171.163C34.1612 171.418 34.0224 171.652 33.84 171.85C33.5115 172.101 33.1273 172.269 32.72 172.34C31.7886 168.987 30.075 165.902 27.72 163.34C24.32 159.94 21.4 163.51 14.79 156.91L14.38 156.51C10.8656 152.985 8.0255 148.847 5.99998 144.3C5.93853 144.152 5.8504 144.016 5.73998 143.9C5.62576 143.786 5.49013 143.695 5.34085 143.633C5.19158 143.571 5.03157 143.539 4.86998 143.539C4.7084 143.539 4.54839 143.571 4.39911 143.633C4.24984 143.695 4.11421 143.786 3.99998 143.9C-0.150016 149.65 0.599984 156.48 9.12998 165.27L9.68998 165.84C17.6 173.74 24.97 176.45 30.83 174.41L32.15 173.74L32.25 173.68L36.93 178.35L37.12 178.52C37.687 179.027 38.4191 179.312 39.18 179.32H58.78C68.03 179.71 90.38 188.25 91.78 207.83C93.04 225.83 84.73 231.58 79.73 232.83L79.42 232.9C61.33 235.69 48.9 241.48 48.9 248.16C48.9 251.32 51.74 254.34 56.69 256.85C44.99 252.98 37.76 247.69 37.76 241.85C37.76 234.12 50.42 227.34 69.4 223.58L70.57 223.35C70.7528 223.37 70.9372 223.37 71.12 223.35C73.4133 222.91 75.5966 222.537 77.67 222.23L81.05 221.79L82.12 221.67H82.61L83.01 221.56C83.6968 221.472 84.3221 221.12 84.752 220.577C85.182 220.034 85.3824 219.345 85.3106 218.656C85.2387 217.968 84.9002 217.334 84.3675 216.892C83.8347 216.45 83.1501 216.234 82.46 216.29C81.32 216.41 80.15 216.54 78.95 216.7H78.84C76.11 217.08 73.44 217.52 70.84 218.01L70.1 218.15H69.97C45.34 222.99 28.45 232.8 28.45 243.38C28.4481 244.668 28.6925 245.944 29.17 247.14C32.5431 265.169 37.2767 282.916 43.33 300.23L43.7 301.23L43.27 301.35C24.76 306.69 13.15 314.35 13.15 322.92C13.15 328.5 18.08 333.71 26.64 338.13L32.45 341.89C37.94 353.21 68.81 361.89 106.13 361.89C143.13 361.89 173.79 353.37 179.64 342.2L186.9 336.73C189.358 335.329 191.627 333.618 193.65 331.64L193.89 331.45H193.82C196.41 328.75 197.82 325.92 197.82 322.94C197.82 318.04 194.01 313.45 187.26 309.36L187.57 309.07C196.1 301.17 202.23 288.91 198.57 276.47C195.903 267.523 188.703 261.523 176.97 258.47C177.71 254.67 178.403 250.773 179.05 246.78C179.44 245.689 179.64 244.539 179.64 243.38C179.64 233.28 164.27 223.9 141.48 218.86C141.353 218.81 141.223 218.769 141.09 218.74C136.981 217.784 132.811 217.116 128.61 216.74C127.91 216.679 127.214 216.899 126.676 217.351C126.138 217.803 125.801 218.45 125.74 219.15C125.679 219.85 125.899 220.546 126.351 221.084C126.803 221.622 127.45 221.959 128.15 222.02C128.88 222.08 129.63 222.16 130.38 222.25C133.07 222.62 135.66 223.06 138.15 223.54L139.9 223.93C140.054 223.969 140.211 223.989 140.37 223.99C158.37 227.82 170.28 234.43 170.28 241.99C170.28 247.69 163.39 252.88 152.16 256.74L151.36 257.01C156.3 254.46 159.14 251.48 159.14 248.31V248.05C158.8 241.35 145.99 235.59 127.58 232.9L126.44 232.74L125.97 232.44C119.37 228.25 116.31 224.39 119.04 204.2C121.74 184.28 138.79 180.46 149.67 179.57L150.32 179.51L171.75 179.45C172.168 179.451 172.582 179.37 172.968 179.21C173.354 179.051 173.705 178.816 174 178.52L192 160.27C192.802 160.488 193.629 160.602 194.46 160.61C196.477 160.603 198.434 159.925 200.024 158.683C201.613 157.441 202.745 155.706 203.239 153.75C203.734 151.795 203.565 149.73 202.757 147.882C201.95 146.033 200.551 144.506 198.78 143.54H198.81ZM192.34 322.85V323C192.29 324.35 191.55 325.87 189.88 327.6L189.48 327.99C187.853 329.533 186.046 330.876 184.1 331.99L183.84 332.15L175.37 338.54L174.81 339.61C172.89 343.25 165.56 347.4 154.34 350.61L153.07 350.97C140.16 354.46 123.61 356.43 106.07 356.43C88.36 356.43 71.69 354.43 58.73 350.9C46.79 347.63 39.07 343.26 37.25 339.52L36.59 338.17L29.29 333.43L28.69 333.11C21.77 329.46 18.5 325.78 18.5 322.89C18.5 318.35 26.3 312.43 40.86 307.68L41.77 307.39L43.22 306.94L45.55 306.26L45.9 307.16L46.33 308.21L45.45 308.51C34.65 312.3 28.18 317.13 28.18 322.39C28.18 334.56 62.76 344.39 105.43 344.39C148.1 344.39 182.68 334.53 182.68 322.39C182.68 319.91 181.23 317.53 178.58 315.28L179.15 314.98C180.15 314.47 181.08 313.91 182.04 313.29L182.62 312.9C189 316.31 192.34 319.88 192.34 322.85ZM171.82 252.41C171.233 255.81 170.607 259.143 169.94 262.41C183.38 263.75 192.15 269.81 194.33 279.99C197.01 292.47 185.58 308.29 173.33 312.21C167.01 314.21 161.33 314.35 154.02 312.33C149.6 320.14 143.1 327.02 132.21 330.26C124.21 332.65 118.66 334.08 105.74 334.2H103.57C91.57 334.14 85.93 332.96 78.87 330.94L76.55 330.28C61.83 325.92 55 315.05 50.73 304L50.47 303.31L50.12 302.36C44.5873 286.547 40.219 270.35 37.05 253.9C50.55 262.3 75.86 267.9 103.98 267.9C133.74 268 159.48 261.62 171.82 252.41Z" fill="white"/>
</svg>
